<svg xmlns="http://www.w3.org/2000/svg" width="93.435" height="93.435" viewBox="0 0 93.435 93.435">
  <g id="Grupo_98" data-name="Grupo 98" transform="translate(-4919 -2269.429)">
    <g id="Grupo_97" data-name="Grupo 97">
      <g id="Grupo_94" data-name="Grupo 94">
        <path id="Trazado_41" data-name="Trazado 41" d="M4985.841,2362.864h-40.248A26.622,26.622,0,0,1,4919,2336.271v-40.249a26.623,26.623,0,0,1,26.593-26.593h40.248a26.624,26.624,0,0,1,26.594,26.593v40.249A26.623,26.623,0,0,1,4985.841,2362.864Zm-40.248-85.426a18.606,18.606,0,0,0-18.585,18.584v40.249a18.606,18.606,0,0,0,18.585,18.585h40.248a18.606,18.606,0,0,0,18.585-18.585v-40.249a18.605,18.605,0,0,0-18.585-18.584Z" fill="#fff"/>
      </g>
      <g id="Grupo_95" data-name="Grupo 95">
        <path id="Trazado_42" data-name="Trazado 42" d="M4965.717,2340.07a23.924,23.924,0,1,1,23.924-23.923A23.95,23.95,0,0,1,4965.717,2340.07Zm0-39.838a15.915,15.915,0,1,0,15.915,15.915A15.933,15.933,0,0,0,4965.717,2300.232Z" fill="#fff"/>
      </g>
      <g id="Grupo_96" data-name="Grupo 96">
        <path id="Trazado_43" data-name="Trazado 43" d="M4996.417,2290.854a5.75,5.75,0,1,1-5.75-5.749A5.75,5.75,0,0,1,4996.417,2290.854Z" fill="#fff"/>
      </g>
    </g>
  </g>
</svg>
