<svg id="noun-cart-1168683" xmlns="http://www.w3.org/2000/svg" width="31.86" height="26.455" viewBox="0 0 31.86 26.455">
  <path id="Trazado_441" data-name="Trazado 441" d="M9.382,130.07a2.375,2.375,0,0,0,2.261,1.685H28.637A2.374,2.374,0,0,0,30.9,130.07L36,113.018a1.753,1.753,0,0,0-1.681-2.253H27.994a8.375,8.375,0,0,0-15.706,0H5.964a1.752,1.752,0,0,0-1.679,2.254Zm10.758-23.7a7.326,7.326,0,0,1,6.7,4.4H13.44A7.315,7.315,0,0,1,20.141,106.369ZM5.417,112.11a.678.678,0,0,1,.547-.275h6.005a8.315,8.315,0,0,0-.2,1.836.535.535,0,1,0,1.07,0,7.294,7.294,0,0,1,.234-1.836H27.21a7.264,7.264,0,0,1,.233,1.836.535.535,0,1,0,1.07,0,8.4,8.4,0,0,0-.2-1.836h6a.682.682,0,0,1,.655.877l-5.1,17.051a1.3,1.3,0,0,1-1.238.921H11.643a1.3,1.3,0,0,1-1.238-.921l-5.1-17.05a.671.671,0,0,1,.107-.6Z" transform="translate(-4.21 -105.3)"/>
  <path id="Trazado_442" data-name="Trazado 442" d="M267.485,600.42h16.741a.535.535,0,0,0,0-1.07H267.485a.535.535,0,0,0,0,1.07Z" transform="translate(-259.925 -586.14)"/>
  <path id="Trazado_443" data-name="Trazado 443" d="M328.146,738.35H313.885a.535.535,0,1,0,0,1.07h14.261a.535.535,0,1,0,0-1.07Z" transform="translate(-305.084 -721.423)"/>
  <path id="Trazado_444" data-name="Trazado 444" d="M355.546,877.35H342.835a.535.535,0,1,0,0,1.07h12.712a.535.535,0,1,0,0-1.07Z" transform="translate(-333.26 -856.706)"/>
</svg>
