<svg xmlns="http://www.w3.org/2000/svg" width="25.033" height="26.374" viewBox="0 0 25.033 26.374">
  <path id="noun-user-1117304" d="M264,265.927a.447.447,0,0,0,.894,0v-1.341a12.1,12.1,0,0,1,7.868-11.309,7.091,7.091,0,0,0,3.755,1.073,7.21,7.21,0,0,0,3.755-1.073,12.1,12.1,0,0,1,7.868,11.309v1.341a.447.447,0,0,0,.894,0v-1.341a13.007,13.007,0,0,0-7.912-11.935,7.16,7.16,0,1,0-11.757-5.5,7.06,7.06,0,0,0,2.548,5.454A13.117,13.117,0,0,0,264,264.586Zm6.258-18.775a6.258,6.258,0,1,1,6.258,6.258A6.277,6.277,0,0,1,270.254,247.152Z" transform="translate(-263.996 -240)"/>
</svg>
