<svg xmlns="http://www.w3.org/2000/svg" width="30.888" height="26.374" viewBox="0 0 30.888 26.374">
  <path id="noun-heart-5639625" d="M121.539,206.376a.529.529,0,0,1-.155-.023.561.561,0,0,1-.286-.143l-12.727-12.765a7.9,7.9,0,0,1,0-11.13,7.855,7.855,0,0,1,11.13,0l2.019,2.027,2.02-2.027a7.87,7.87,0,1,1,11.13,11.13l-12.727,12.769a.58.58,0,0,1-.4.166Zm-7.6-25.244a6.667,6.667,0,0,0-4.762,1.978,6.763,6.763,0,0,0,0,9.536l12.347,12.384,12.347-12.384a6.763,6.763,0,0,0,0-9.536,6.722,6.722,0,0,0-9.525,0l-2.423,2.43a.583.583,0,0,1-.8,0l-2.423-2.43a6.7,6.7,0,0,0-4.762-1.978Z" transform="translate(-106.076 -180.003)"/>
</svg>
